<svg xmlns="http://www.w3.org/2000/svg" width="342" height="279" viewBox="0 0 342 279"><g fill="none"><path fill="#FFEA81" d="M4.108 145.449c-5.61 2.459-5.454 6.091.343 8.066l75.478 25.725c5.796 1.978 11.757 8.451 13.246 14.385l19.603 78.083c1.485 5.932 6.904 8.048 12.033 4.707l73.145-47.657c5.129-3.343 14.063-4.432 19.846-2.421l63.096 21.937c5.783 2.015 11.528-1.245 12.753-7.235l48.12-233.724c1.192-5.999-2.421-8.899-8.028-6.438l-329.636 144.572z"/><path fill="#FDC259" d="M155.428 205l-38.428 73.642c2.115.717 4.617.38 7.066-1.225l72.99-47.923c5.118-3.364 14.034-4.457 19.804-2.435l7.14 2.499-68.572-24.558z"/><path fill="#FFD668" d="M339 1.485c-.423-.238-.895-.405-1.421-.485l-239.777 176.879c-7.334 5.416-13.964 4.141-16.802 3.176 5.298 2.472 10.408 8.363 11.768 13.804l19.576 78.207c.777 3.1 2.628 5.148 4.946 5.934l38.456-73.348 183.255-204.167z"/></g></svg>